<?xml version="1.0" encoding="UTF-8"?><!DOCTYPE svg PUBLIC "-//W3C//DTD SVG 1.1//EN" "http://www.w3.org/Graphics/SVG/1.1/DTD/svg11.dtd">
<svg xmlns="http://www.w3.org/2000/svg" xml:space="preserve" width="100px" height="100px" version="1.1" style="shape-rendering:geometricPrecision; text-rendering:geometricPrecision;image-rendering:optimizeQuality; fill-rule:evenodd; clip-rule:evenodd" viewBox="0 0 100 100" xmlns:xlink="http://www.w3.org/1999/xlink" xmlns:xodm="http://www.corel.com/coreldraw/odm/2003">
<defs>
<style type="text/css">
<![CDATA[ .fil0 {fill:none} .fil1 {fill:#17A2B8} .fil2 {fill:#8D9AA8} ]]>
</style>
</defs>
<g id="Layer_x0020_1">
<metadata id="CorelCorpID_0Corel-Layer"/>
<rect class="fil0" width="100" height="100"/>
<rect class="fil1" x="2.29" y="22.24" width="15.61" height="15.61" rx="3.17" ry="3.17"/>
<path class="fil2" d="M34.68 2.29l-29.22 0c-1.75,0 -3.17,1.42 -3.17,3.17l0 9.27c0,1.74 1.42,3.17 3.17,3.17 4.87,0 9.74,0 14.61,0 1.19,0 2.17,0.97 2.17,2.17 0,19.95 0,39.91 0,59.86 0,1.2 -0.98,2.17 -2.17,2.17 -1.2,0 -2.17,-0.97 -2.17,-2.17 0,-11.52 0,-23.04 0,-34.56 0,-1.75 -1.43,-3.17 -3.17,-3.17l-9.27 0c-1.75,0 -3.17,1.42 -3.17,3.17 0,16.39 0,32.78 0,49.17 0,1.75 1.42,3.17 3.17,3.17 9.74,0 19.48,0 29.22,0 1.74,0 3.17,-1.42 3.17,-3.17 0,-29.69 0,-59.39 0,-89.08 0,-1.75 -1.43,-3.17 -3.17,-3.17z"/>
<path class="fil2" d="M65.32 2.29c-1.74,0 -3.17,1.42 -3.17,3.17 0,16.39 0,32.78 0,49.17 0,1.75 1.43,3.17 3.17,3.17 4.87,0 9.74,0 14.61,0 1.2,0 2.17,0.98 2.17,2.18l0 19.95c0,1.2 -0.97,2.17 -2.17,2.17 -1.19,0 -2.17,-0.97 -2.17,-2.17 0,-4.87 0,-9.74 0,-14.61 0,-1.74 -1.43,-3.17 -3.17,-3.17l-9.27 0c-1.74,0 -3.17,1.43 -3.17,3.17 0,9.74 0,19.48 0,29.22 0,1.75 1.43,3.17 3.17,3.17 9.74,0 19.48,0 29.22,0 1.75,0 3.17,-1.42 3.17,-3.17 0,-16.39 0,-32.78 0,-49.17 0,-1.75 -1.42,-3.17 -3.17,-3.17l-14.61 0c-1.19,0 -2.17,-0.98 -2.17,-2.18 0,-6.65 0,-13.3 0,-19.95 0,-1.2 0.98,-2.17 2.17,-2.17 1.2,0 2.17,0.97 2.17,2.17 0,4.87 0,9.74 0,14.61 0,1.74 1.43,3.17 3.17,3.17l9.27 0c1.75,0 3.17,-1.43 3.17,-3.17 0,-9.74 0,-19.48 0,-29.22 0,-1.75 -1.42,-3.17 -3.17,-3.17 -9.74,0 -19.48,0 -29.22,0z"/>
<rect class="fil1" x="42.2" y="2.29" width="15.61" height="15.61" rx="3.17" ry="3.17"/>
<path class="fil2" d="M57.8 94.54c0,1.75 -1.42,3.17 -3.17,3.17l-9.26 0c-1.75,0 -3.17,-1.42 -3.17,-3.17 0,-23.04 0,-46.08 0,-69.13 0,-1.74 1.42,-3.17 3.17,-3.17l9.26 0c1.75,0 3.17,1.43 3.17,3.17 0,23.05 0,46.09 0,69.13z"/>
</g>
</svg>